<?xml version="1.0" encoding="iso-8859-1"?>
<!-- Uploaded to: SVG Repo, www.svgrepo.com, Generator: SVG Repo Mixer Tools -->
<svg version="1.1" id="Layer_1" xmlns="http://www.w3.org/2000/svg" xmlns:xlink="http://www.w3.org/1999/xlink" 
	 viewBox="0 0 505.938 505.938" xml:space="preserve">
<path style="fill:#A31A1A;" d="M296.969,133.195c24,80-10.4,206.4-90.4,229.6c-80,24-176.8-64-200.8-144s29.6-140,110.4-163.2
	C196.169,31.595,272.969,52.395,296.969,133.195z"/>
<path style="fill:#8E1313;" d="M116.169,54.795c80-24,157.6-2.4,180.8,77.6c24,80-10.4,206.4-90.4,229.6"/>
<polygon style="fill:#D89621;" points="267.369,439.595 233.769,455.595 196.969,460.395 178.569,330.795 192.169,314.795 
	212.969,321.195 "/>
<polyline style="fill:#BC7A0F;" points="192.169,314.795 212.969,321.195 267.369,439.595 233.769,455.595 "/>
<path style="fill:#D89621;" d="M93.769,336.395c35.2,24.8,75.2,37.6,112.8,26.4c36.8-11.2,64-43.2,80-83.2L93.769,336.395z"/>
<path style="fill:#BC7A0F;" d="M206.569,362.795c36.8-11.2,64-43.2,80-83.2"/>
<rect x="176.165" y="321.099" transform="matrix(-0.9594 0.2819 -0.2819 -0.9594 476.4715 584.8464)" style="fill:#8E1313;" width="39.998" height="11.2"/>
<path style="fill:#038491;" d="M208.969,133.195c-24,80,10.4,206.4,90.4,229.6c80,24,176.8-64,200.8-144c24-80-29.6-140-110.4-163.2
	C309.769,31.595,232.969,52.395,208.969,133.195z"/>
<path style="fill:#0CA6BF;" d="M389.769,54.795c-80-24-157.6-2.4-180.8,77.6c-24,80,10.4,206.4,90.4,229.6"/>
<polygon style="fill:#BC7A0F;" points="238.569,439.595 272.169,455.595 308.969,460.395 327.369,330.795 313.769,314.795 
	292.969,321.195 "/>
<polyline style="fill:#D89621;" points="313.769,314.795 292.969,321.195 238.569,439.595 272.169,455.595 "/>
<path style="fill:#BC7A0F;" d="M412.169,336.395c-35.2,24.8-75.2,37.6-112.8,26.4c-36.8-11.2-64-43.2-80-83.2L412.169,336.395z"/>
<path style="fill:#D89621;" d="M299.369,362.795c-36.8-11.2-64-43.2-80-83.2"/>
<rect x="289.656" y="320.893" transform="matrix(0.9594 0.2819 -0.2819 0.9594 104.6018 -74.0531)" style="fill:#8E1313;" width="39.998" height="11.2"/>
<circle style="fill:#E6E8E8;" cx="252.969" cy="202.795" r="56.8"/>
<path style="fill:#C3C9C9;" d="M292.969,162.795c22.4,22.4,22.4,58.4,0,80c-22.4,22.4-57.6,22.4-80,0"/>
</svg>