<svg width="120" height="121" viewBox="0 0 120 121" fill="none" xmlns="http://www.w3.org/2000/svg">
  <circle cx="60" cy="60" r="60" fill="#D3D3D3" fill-opacity="0.5"/>
  <path d="M105.527 98.9691C105.444 98.9691 105.072 99.5877 104.99 99.5877C99.5905 106.052 92.2637 111.164 84.6399 114.732C77.0161 118.299 68.7036 120.148 60.2887 120.148C51.8737 120.148 43.5001 118.619 35.8763 115.052C28.2525 111.484 21.4816 107.289 16.0825 100.825C16 100.825 15.5464 98.9691 15.4639 98.9691C15.011 98.3109 14.8774 97.4085 14.8454 96.6098C14.8607 95.7433 15.1365 94.9014 15.6367 94.1942C16.1369 93.4869 16.8383 92.9471 17.6495 92.645L17.7876 92.5983C23.8407 90.5502 29.6207 88.5945 31.2577 88.1847C31.2194 87.9984 31.2217 87.806 31.2644 87.6207C31.3071 87.4354 31.3892 87.2615 31.5052 87.1109C31.7214 86.3113 32.1774 85.5975 32.8116 85.0657C33.4458 84.5339 34.2276 84.2099 35.0515 84.1373L45.5258 83.3113C45.4375 81.054 44.905 78.8365 43.9588 76.7859V76.7033C43.075 74.3701 41.8218 72.1946 40.2474 70.2605C35.9344 64.6255 33.6396 57.7012 33.732 50.6017C33.2758 43.3009 35.699 36.1124 40.4803 30.5824C45.2615 25.0524 52.0189 21.6227 59.299 21.031H61.2783C68.5584 21.6227 75.3158 25.0524 80.097 30.5824C84.8783 36.1124 87.3015 43.3009 86.8454 50.6017C86.9378 57.7012 84.6429 64.6255 80.3299 70.2605C78.7555 72.1946 77.5023 74.3701 76.6185 76.7033V76.7859C75.6724 78.8365 75.1398 81.054 75.0515 83.3113L85.5258 84.1373C86.3497 84.2099 87.1315 84.5339 87.7657 85.0657C88.3999 85.5975 88.8559 86.3113 89.0722 87.1109C89.1881 87.2615 89.2703 87.4354 89.313 87.6207C89.3557 87.806 89.3579 87.9984 89.3196 88.1847C90.9566 88.5945 96.7365 90.5502 102.79 92.5982L102.928 92.645C103.533 92.8394 104.083 93.1737 104.535 93.6209C104.986 94.0681 105.326 94.6156 105.527 95.219C105.728 95.8224 105.784 96.4647 105.69 97.0938C105.597 97.7229 105.894 98.4503 105.527 98.9691Z" fill="#D3D3D3"/>
</svg>
